<?xml version="1.0" encoding="UTF-8" standalone="no"?>
<!-- Created with Inkscape (http://www.inkscape.org/) -->
<svg id="svg3242" xmlns:rdf="http://www.w3.org/1999/02/22-rdf-syntax-ns#" xmlns="http://www.w3.org/2000/svg" height="90" width="90" version="1.1" xmlns:cc="http://creativecommons.org/ns#" xmlns:dc="http://purl.org/dc/elements/1.1/">
 <metadata id="metadata3247">
  <rdf:RDF>
   <cc:Work rdf:about="">
    <dc:format>image/svg+xml</dc:format>
    <dc:type rdf:resource="http://purl.org/dc/dcmitype/StillImage"/>
    <dc:title/>
   </cc:Work>
  </rdf:RDF>
 </metadata>
 <g id="layer1" transform="translate(-.0000026172 -962.36)">
  <g id="g4255" transform="translate(.0000026172 96)">
   <rect id="rect4257" style="opacity:.4;fill:none" height="90" width="90" y="866.36" x="0"/>
   <path id="path4259" style="fill:#808080" d="m19.274 950.36c28.771 0 64.726-38.048 64.726-64.639 0-2.0851-7.9904-17.042-12.528-12.511-6.2638 6.2554-12.528 18.766-10.44 22.936 1.7607 3.5167 8.3518 2.2229 8.3518 6.2554s-9.0477 9.0356-14.616 14.596c-5.5678 5.5604-14.846 18.766-18.791 18.766-4.1677 0-3.2501-6.6029-6.2638-8.3405-4.0655-2.3441-16.703 4.1702-22.967 10.426-4.1756 4.17 10.44 12.51 12.528 12.51z"/>
  </g>
 </g>
</svg>
