<?xml version="1.0" encoding="UTF-8" standalone="no"?>
<svg style="enable-background:new" xmlns="http://www.w3.org/2000/svg" height="512" viewBox="0 0 512 512" width="512" version="1.1" xmlns:xlink="http://www.w3.org/1999/xlink">
 <defs>
  <linearGradient id="d" y2="348" xlink:href="#a" gradientUnits="userSpaceOnUse" x2="108.6" gradientTransform="translate(0,-18)" y1="330.6" x1="122"/>
  <linearGradient id="a">
   <stop stop-color="#e6a240" stop-opacity=".996" offset="0"/>
   <stop stop-color="#eab261" stop-opacity=".2745" offset="1"/>
  </linearGradient>
  <linearGradient id="e" y2="314.2" xlink:href="#a" gradientUnits="userSpaceOnUse" x2="370.3" gradientTransform="translate(0,-18)" y1="293" x1="354"/>
  <linearGradient id="g" y2="375.7" gradientUnits="userSpaceOnUse" x2="211.4" gradientTransform="matrix(7.411 0 0 7.411 -1355 -2409)" y1="344.7" x1="211.4">
   <stop stop-color="#fdfdfb" offset="0"/>
   <stop stop-color="#f0e9df" offset="1"/>
  </linearGradient>
  <linearGradient id="f" y2="141.4" gradientUnits="userSpaceOnUse" x2="299.4" y1="344.1" x1="298">
   <stop stop-color="#f3e6d2" stop-opacity=".9961" offset="0"/>
   <stop stop-color="#f7f4ee" offset="1"/>
  </linearGradient>
  <linearGradient id="b" y2="375.4" gradientUnits="userSpaceOnUse" x2="232.8" gradientTransform="matrix(7.501 0 0 7.501 -1372 -2438)" y1="344.7" x1="211.4">
   <stop stop-opacity="0" offset="0"/>
   <stop offset=".6703"/>
   <stop stop-opacity="0" offset="1"/>
  </linearGradient>
  <linearGradient id="c" y2="682" gradientUnits="userSpaceOnUse" x2="673.1" y1="18">
   <stop stop-color="#f37e40" offset="0"/>
   <stop stop-color="#fac82e" offset="1"/>
  </linearGradient>
 </defs>
 <g>
  <path style="color:#000000;enable-background:accumulate" d="m0 0v183.9 144.2 183.9h512v-183.9-144.2-183.9h-512z" fill="url(#c)"/>
  <path opacity=".1" style="color:#000000;enable-background:accumulate" d="m511.8 162.4l-490.2 349.6h490.4v-183.9-144.2-8.7c-0.1-4.3-0.1-8.6-0.2-12.8z" fill="#fff"/>
 </g>
 <g>
  <path opacity=".1" style="enable-background:new" d="m141.7 142.5c-14.47-0.1808-24.19 3.067-29.18 9.055-5.239 6.237-7.925 16.47-7.925 30.69v125.6c0 14.22 2.685 24.45 7.925 30.69 4.99 5.988 14.71 9.057 29.18 9.057h26.27l45.32 31.99 45.32-31.99h116.5c14.47 0 24.19-3.069 29.18-9.057 5.239-6.237 7.925-16.47 7.925-30.69v-125.6c0-14.22-2.685-24.45-7.925-30.69-4.99-5.988-14.71-9.055-29.18-9.055h-175.8z" fill="url(#b)"/>
  <path opacity=".1" style="enable-background:new" d="m140.7 143.4c-14.3-0.1787-23.9 3.031-28.83 8.947-5.2 6.2-7.9 16.3-7.9 30.4v124.1c0 14.05 2.653 24.16 7.83 30.32 4.93 5.916 14.54 8.949 28.83 8.949h25.96l44.78 31.61 44.78-31.61h115.1c14.3 0 23.9-3.033 28.83-8.949 5.1-6.2 7.8-16.4 7.8-30.4v-124.1c0-14.05-2.653-24.16-7.83-30.33-4.93-5.916-14.54-8.947-28.83-8.947h-173.7z"/>
  <path opacity=".05" style="color:#000000;enable-background:accumulate" d="m219.3 124-35.19 71.66v59.25c-4.94 5.788-10.34 11.62-15.97 17.25-18.5 18.5-39.25 34.69-53.12 39.31l-23.34-23.5-71.66 35.2v170.7h256v-317.6c-15.4-33.4-32.4-45.9-56.7-52.4zm-97.5 229c0.007-0.005 0.0239 0.005 0.0312 0-2.611 1.63-5.251 3.227-7.906 4.812 2.656-1.586 5.264-3.182 7.875-4.812zm-24.09 14.06c0.008-0.004 0.0234 0.004 0.0312 0-2.742 1.499-5.529 2.981-8.312 4.438 2.784-1.457 5.539-2.939 8.281-4.438z" fill-opacity="0"/>
  <path style="enable-background:new" d="m140.7 141.4c-14.3-0.1787-23.9 3.032-28.83 8.948-5.2 6.2-7.9 16.3-7.9 30.4v124.1c0 14.05 2.653 24.16 7.83 30.33 4.93 5.916 14.54 8.949 28.83 8.949h25.96l44.78 31.61 44.78-31.61h115.1c14.3 0 23.9-3.032 28.83-8.949 5.1-6.2 7.8-16.4 7.8-30.4v-124.1c0-14.05-2.653-24.16-7.83-30.33-4.93-5.916-14.54-8.948-28.83-8.948h-173.7z" fill="url(#f)"/>
  <path style="enable-background:new" fill="url(#g)" d="m140.7 141.4c-14.3-0.1787-23.9 3.032-28.83 8.948-5.2 6.2-7.9 16.3-7.9 30.4v119.2l62.62 44.2 44.78 31.61 44.78-31.61h0.00008l151.8-107.2v-56.23c0-14.05-2.653-24.16-7.83-30.33-4.93-5.916-14.54-8.948-28.83-8.948h-173.7z"/>
  <path style="enable-background:new" d="m168 216v16h176v-16z" fill="#fbc58c"/>
  <path style="enable-background:new" d="m168 256v16h88v-16z" fill="#fbc58c"/>
  <path style="enable-background:new" fill="#fff" d="m140.7 141.4c-14.3-0.1787-23.9 3.032-28.83 8.948-5.2 6.2-7.9 16.3-7.9 30.4v2c0-14.05 2.653-24.16 7.83-30.33 4.93-5.916 14.54-9.127 28.83-8.948h230.7c14.3 0 23.9 3.032 28.83 8.948 5.177 6.163 7.83 16.27 7.83 30.33v-2c0-14.05-2.653-24.16-7.83-30.33-4.93-5.916-14.54-8.948-28.83-8.948h-173.8z"/>
  <path opacity=".1" style="enable-background:new" d="m408 236.9-151.8 107.2h115.1c14.3 0 23.9-3.032 28.83-8.949 5.2-6.2 7.9-16.4 7.9-30.4z" fill="url(#e)"/>
  <path opacity=".1" style="enable-background:new" d="m104 299.9v4.929c0 14.05 2.653 24.16 7.83 30.33 4.93 5.916 14.54 8.949 28.83 8.949h25.96z" fill="url(#d)"/>
 </g>
</svg>
