<?xml version="1.0" encoding="UTF-8" standalone="no"?>
<!-- Created with Inkscape (http://www.inkscape.org/) -->

<svg
   xmlns:dc="http://purl.org/dc/elements/1.1/"
   xmlns:cc="http://creativecommons.org/ns#"
   xmlns:rdf="http://www.w3.org/1999/02/22-rdf-syntax-ns#"
   xmlns:svg="http://www.w3.org/2000/svg"
   xmlns="http://www.w3.org/2000/svg"
   xmlns:sodipodi="http://sodipodi.sourceforge.net/DTD/sodipodi-0.dtd"
   xmlns:inkscape="http://www.inkscape.org/namespaces/inkscape"
   width="154.32536mm"
   height="22.859941mm"
   viewBox="0 0 546.82215 80.999792"
   id="svg2"
   version="1.1"
   inkscape:version="0.91 r13725"
   sodipodi:docname="sine.svg">
  <sodipodi:namedview
     id="base"
     pagecolor="#ffffff"
     bordercolor="#666666"
     borderopacity="1.0"
     inkscape:pageopacity="0.0"
     inkscape:pageshadow="2"
     inkscape:zoom="0.98994949"
     inkscape:cx="168.47458"
     inkscape:cy="59.303398"
     inkscape:document-units="px"
     inkscape:current-layer="layer1"
     showgrid="false"
     inkscape:window-width="1615"
     inkscape:window-height="1026"
     inkscape:window-x="1431"
     inkscape:window-y="24"
     inkscape:window-maximized="1"
     fit-margin-top="0"
     fit-margin-left="0"
     fit-margin-right="0"
     fit-margin-bottom="0" />
  <defs
     id="defs4" />
  <metadata
     id="metadata7">
    <rdf:RDF>
      <cc:Work
         rdf:about="">
        <dc:format>image/svg+xml</dc:format>
        <dc:type
           rdf:resource="http://purl.org/dc/dcmitype/StillImage" />
        <dc:title></dc:title>
      </cc:Work>
    </rdf:RDF>
  </metadata>
  <g
     id="layer1"
     inkscape:groupmode="layer"
     inkscape:label="Camada 1"
     transform="translate(-47.896662,-314.71964)">
    <path
       id="path3884"
       title="sin(x)"
       d="m 594.28572,321.18321 c -1.43232,2.48255 -2.86464,5.68207 -4.29696,9.40505 -1.43232,3.72297 -2.86464,7.96442 -4.29697,12.46527 -1.43232,4.50084 -2.86464,9.25724 -4.29696,13.97677 -1.43232,4.71953 -2.86464,9.39994 -4.29696,13.75178 -1.43232,4.35184 -2.86464,8.37476 -4.29696,11.81823 -1.43233,3.44348 -2.86465,6.30908 -4.29697,8.41637 -1.43232,2.10728 -2.86464,3.45954 -4.29696,3.96882 -1.43232,0.50928 -2.86464,0.1802 -4.29696,-0.97181 -1.43232,-1.152 -2.86465,-3.12154 -4.29697,-5.7917 -1.43232,-2.67015 -2.86464,-6.03546 -4.29696,-9.89202 -1.43232,-3.85656 -2.86464,-8.19951 -4.29696,-12.76333 -1.43232,-4.56382 -2.86464,-9.34485 -4.29696,-14.04891 -1.43233,-4.70406 -2.86465,-9.32915 -4.29697,-13.589 -1.43232,-4.25986 -2.86464,-8.15438 -4.29696,-11.44079 -1.43232,-3.2864 -2.86464,-5.96649 -4.29696,-7.87113 -1.43232,-1.90463 -2.86465,-3.03731 -4.29697,-3.32355 -1.43232,-0.28623 -2.86464,0.26922 -4.29696,1.63695 -1.43232,1.36773 -2.86464,3.54232 -4.29696,6.39408 -1.43232,2.85176 -2.86464,6.3753 -4.29697,10.35679 -1.43232,3.98149 -2.86464,8.4162 -4.29696,13.03275 -1.43232,4.61654 -2.86464,9.41146 -4.29696,14.08949 -1.43232,4.67803 -2.86464,9.23742 -4.29696,13.39573 -1.43233,4.15831 -2.86465,7.9157 -4.29697,11.03765 -1.43232,3.12195 -2.86464,5.61052 -4.29696,7.30823 -1.43232,1.69771 -2.86464,2.60827 -4.29696,2.67082 -1.43232,0.0625 -2.86464,-0.71803 -4.29697,-2.29842 -1.43232,-1.58039 -2.86464,-3.95513 -4.29696,-6.9821 -1.43232,-3.02697 -2.86464,-6.70083 -4.29696,-10.79831 -1.43232,-4.09748 -2.86464,-8.614 -4.29696,-13.27291 -1.43233,-4.6589 -2.86465,-9.45695 -4.29697,-14.09845 -1.43232,-4.6415 -2.86464,-9.12496 -4.29696,-13.17238 -1.43232,-4.04743 -2.86464,-7.65925 -4.29696,-10.60974 -1.43232,-2.95049 -2.86465,-5.24195 -4.29697,-6.72893 -1.43232,-1.48698 -2.86464,-2.17337 -4.29696,-2.01209 -1.43232,0.16128 -2.86464,1.16523 -4.29696,2.95473 -1.43232,1.7895 -2.86464,4.35906 -4.29696,7.55445 -1.43233,3.19539 -2.86465,7.01131 -4.29697,11.21559 -1.43232,4.20427 -2.86464,8.79246 -4.29696,13.48327 -1.43232,4.69081 -2.86464,9.48122 -4.29696,14.07577 -1.43232,4.59455 -2.86465,8.992 -4.29697,12.91946 -1.43232,3.92746 -2.86464,7.38561 -4.29696,10.15802 -1.43232,2.77241 -2.86464,4.8616 -4.29696,6.13451 -1.43232,1.27291 -2.86464,1.73359 -4.29697,1.34884 -1.43232,-0.38474 -2.86464,-1.60981 -4.29696,-3.6044 -1.43232,-1.9946 -2.86464,-4.75321 -4.29696,-8.10984 -1.43232,-3.35663 -2.86464,-7.30606 -4.29696,-11.60769 -1.43232,-4.30163 -2.86465,-8.95118 -4.29697,-13.66337 -1.43232,-4.71219 -2.86464,-9.48419 -4.29696,-14.02149 -1.43232,-4.53729 -2.86464,-8.83887 -4.29696,-12.63754 -1.43232,-3.79867 -2.86464,-7.09539 -4.29697,-9.68349 -1.43232,-2.5881 -2.86464,-4.47035 -4.29696,-5.52633 -1.43232,-1.05597 -2.86464,-1.28991 -4.29696,-0.68257 -1.43232,0.60735 -2.86464,2.05079 -4.29696,4.246 -1.43233,2.19521 -2.86465,5.13668 -4.29697,8.64702 -1.43232,3.51034 -2.86464,7.5844 -4.29696,11.97373 -1.43232,4.38933 -2.86464,9.08981 -4.29696,13.8128 -1.43232,4.72298 -2.86465,9.46588 -4.29697,13.93573 -1.43232,4.46984 -2.86464,8.66589 -4.29696,12.32725 -1.43232,3.66137 -2.86464,6.78924 -4.29696,9.18722 -1.43232,2.39799 -2.86464,4.06907 -4.29696,4.90574 -1.43233,0.83668 -2.86465,0.84335 -4.29697,0.0148 -1.43232,-0.82858 -2.86464,-2.48715 -4.29696,-4.87805 -1.43232,-2.39089 -2.86464,-5.50863 -4.29696,-9.1648 -1.43232,-3.65616 -2.86465,-7.84572 -4.29697,-12.31289 -1.43232,-4.46718 -2.86464,-9.20804 -4.29696,-13.93122 -1.43232,-4.72318 -2.86464,-9.42632 -4.29696,-13.81869 -1.43232,-4.39236 -2.86464,-8.47346 -4.29697,-11.98929 -1.43232,-3.51583 -2.86464,-6.46785 -4.29696,-8.67033 -1.43232,-2.20249 -2.86464,-3.65865 -4.29696,-4.27414 -1.43232,-0.6155 -2.86464,-0.39489 -4.29696,0.65307 -1.43232,1.04796 -2.86465,2.91793 -4.29697,5.49915 -1.43232,2.58122 -2.86464,5.86822 -4.29696,9.662 -1.43232,3.79378 -2.86464,8.08943 -4.29696,12.62443 -1.43232,4.53499 -2.86464,9.30558 -4.29697,14.01836 -1.43232,4.71277 -2.86464,9.3656 -4.29696,13.67062 -1.43232,4.30502 -2.86464,8.26202 -4.29696,11.62442 -1.43232,3.36241 -2.86464,6.13194 -4.29696,8.13398 -1.43233,2.00204 -2.86465,3.24001 -4.29697,3.63295 -1.43232,0.39294 -2.86464,-0.0545 -4.29696,-1.31945 -1.43232,-1.26498 -2.86464,-3.34216 -4.29696,-6.10791 -1.43232,-2.76574 -2.86465,-6.21463 -4.29697,-10.13751 -1.43232,-3.92289 -2.86464,-8.31498 -4.29696,-12.90761 -1.43232,-4.59264 -2.86464,-9.38226 -4.29696,-14.07404 -1.43232,-4.69178 -2.86464,-9.28386 -4.29696,-13.49188 -1.43233,-4.20801 -2.86465,-8.03201 -4.29697,-11.23345 -1.43232,-3.20144 -2.86464,-5.78226 -4.29696,-7.57937 -1.43232,-1.7971 -2.86464,-2.8141 -4.29696,-2.98359 -1.43232,-0.1695 -2.86465,0.50368 -4.29697,1.98285 -1.43232,1.47918 -2.86464,3.7589 -4.29696,6.70296 -1.43232,2.94407 -2.86464,6.54709 -4.29696,10.59027 -1.43232,4.04318 -2.86464,8.52186 -4.29697,13.16182 -1.43232,4.63997 -2.86464,9.43786 -4.29696,14.09813 -1.43232,4.66026 -2.86464,9.18127 -4.29696,13.28284 -1.43232,4.10156 -2.86464,7.78399 -4.29696,10.81727 -1.43232,3.03328 -2.86465,5.4196 -4.29697,7.00774 -1.43232,1.58813 -2.86464,2.38187 -4.29696,2.32755 -1.43232,-0.0543 -2.86464,-0.95178 -4.29696,-2.64182 -1.43232,-1.69004 -2.86464,-4.16719 -4.29697,-7.28296 -1.43232,-3.11578 -2.86464,-6.86485 -4.29696,-11.01925 -1.43232,-4.15441 -2.86464,-8.70962 -4.29696,-13.38649 -1.43232,-4.67688 -2.86464,-9.47228 -4.29696,-14.09056 -1.43233,-4.61829 -2.86465,-9.05808 -4.29697,-13.04399 -1.43232,-3.98591 -2.86464,-7.51849 -4.29696,-10.3768 -1.43232,-2.85832 -2.86464,-5.04479 -4.29696,-6.42038 -1.43232,-1.3756 -2.86464,-1.94431 -4.29697,-1.66628 -1.43232,0.27803 -2.86464,1.39774 -4.29696,3.29485 -1.43232,1.8971 -2.86464,4.56612 -4.29696,7.84661 -1.43232,3.28049 -2.86464,7.1672 -4.29696,11.4235 -1.43233,4.25629 -2.86465,8.87781 -4.29697,13.5811 -1.43232,4.70329 -2.86464,9.48543 -4.29696,14.05137 -1.43232,4.56594 -2.86464,8.91455 -4.29696,12.77585 -1.43232,3.8613 -2.86465,7.23611 -4.29697,9.91304 -1.43232,2.67693 -2.86464,4.65864 -4.29696,5.81861 -1.43232,1.15998 -2.86464,1.50237 -4.29696,1.00127 -1.43232,-0.5011 -2.86464,-1.84056 -4.29697,-3.94048 -1.432316,-2.09992 -2.864637,-4.95481 -4.296958,-8.39265 -1.432321,-3.43784 -2.864642,-7.45347 -4.296963,-11.80211 -1.432321,-4.34863 -2.864642,-9.02608 -4.296963,-13.74523 -1.432321,-4.71915 -2.864642,-9.47729 -4.296963,-13.98063 -1.432321,-4.50334 -2.864642,-8.75101 -4.296963,-12.47904 -1.432321,-3.72803 -2.864642,-6.93749 -4.296963,-9.42703 -1.43232,-2.48954 -2.864641,-4.26203 -4.296962,-5.20378 -1.432321,-0.94174 -2.864642,-1.05706 -4.296963,-0.334 -1.432321,0.72305 -2.864642,2.27925 -4.296963,4.57727 -1.432321,2.29802 -2.864642,5.33237 -4.296963,8.91985 -1.432321,3.58747 -2.864642,7.723 -4.296963,12.15421 -1.432321,4.43122 -2.864642,9.1541 -4.296963,13.87851 l 545.39827,-1.88273"
       style="fill:none;fill-rule:evenodd;stroke:#000000;stroke-width:1px;stroke-linecap:butt;stroke-linejoin:miter;stroke-opacity:1"
       inkscape:connector-curvature="0" />
  </g>
</svg>
